<svg width="1128" height="254" viewBox="0 0 1128 254" fill="none" xmlns="http://www.w3.org/2000/svg">
<g filter="url(#filter0_d)">
<path d="M140.205 218V133.2L212.02 32.5H179.16L126.16 107.495L73.16 32.5H39.24L111.055 133.995V218H140.205ZM357.72 174.54C345.265 161.29 339.17 144.86 339.17 125.25C339.17 105.64 345.265 89.21 357.72 76.225C370.175 62.975 385.545 56.35 403.83 56.35C422.115 56.35 437.485 62.975 449.94 76.225C462.395 89.21 468.755 105.64 468.755 125.25C468.755 144.86 462.395 161.29 449.94 174.54C437.485 187.525 422.115 194.15 403.83 194.15C385.545 194.15 370.175 187.525 357.72 174.54ZM471.67 193.885C489.69 175.335 498.7 152.545 498.7 125.25C498.7 97.955 489.69 75.165 471.67 56.88C453.65 38.33 431.125 29.055 403.83 29.055C376.535 29.055 354.01 38.33 335.99 56.88C318.235 75.165 309.225 97.955 309.225 125.25C309.225 152.545 318.235 175.335 335.99 193.885C354.01 212.17 376.535 221.445 403.83 221.445C431.125 221.445 453.65 212.17 471.67 193.885ZM718.085 221.445C749.09 221.445 776.915 208.46 792.02 190.44V110.94H762.87V178.515C752.005 188.85 736.9 194.15 718.085 194.15C699.27 194.15 683.635 187.79 670.65 175.335C657.93 162.615 651.57 145.92 651.57 125.515C651.57 105.11 658.195 88.68 671.18 75.695C684.165 62.71 700.86 56.35 721 56.35C740.875 56.35 759.425 62.18 776.385 73.84V44.955C760.75 34.355 741.67 29.055 719.145 29.055C691.32 29.055 668 38.065 649.45 56.35C630.9 74.37 621.625 97.425 621.625 125.25C621.625 153.075 630.9 176.13 649.185 194.415C667.735 212.435 690.79 221.445 718.085 221.445ZM937.35 218L957.225 171.89H1045.2L1065.34 218H1096.61L1015.52 31.44H987.435L906.345 218H937.35ZM1001.21 68.275L1035.13 146.185H967.295L1001.21 68.275Z" fill="white"/>
</g>
<defs>
<filter id="filter0_d" x="-10.76" y="-16.945" width="1157.37" height="292.39" filterUnits="userSpaceOnUse" color-interpolation-filters="sRGB">
<feFlood flood-opacity="0" result="BackgroundImageFix"/>
<feColorMatrix in="SourceAlpha" type="matrix" values="0 0 0 0 0 0 0 0 0 0 0 0 0 0 0 0 0 0 127 0"/>
<feOffset dy="4"/>
<feGaussianBlur stdDeviation="25"/>
<feColorMatrix type="matrix" values="0 0 0 0 0.513726 0 0 0 0 0.45098 0 0 0 0 0.631373 0 0 0 0.6 0"/>
<feBlend mode="normal" in2="BackgroundImageFix" result="effect1_dropShadow"/>
<feBlend mode="normal" in="SourceGraphic" in2="effect1_dropShadow" result="shape"/>
</filter>
</defs>
</svg>
